<svg width="42" height="41" viewBox="0 0 42 41" fill="none" xmlns="http://www.w3.org/2000/svg">
<path d="M30.9638 30.9869C30.717 31.0022 30.586 31.0174 30.4519 31.0174C28.7668 31.0174 27.0817 31.0082 25.3966 31.0296C25.034 31.0326 24.8329 30.8925 24.6379 30.606C23.0168 28.2262 21.3836 25.8555 19.7533 23.4818C19.6314 23.305 19.5065 23.1314 19.3389 22.8998C19.1774 23.0735 19.0342 23.2197 18.9001 23.3751C16.8402 25.7641 14.7773 28.15 12.7357 30.5542C12.4402 30.9046 12.1354 31.0692 11.6844 31.0235C11.3614 30.993 11.0324 31.0174 10.5601 31.0174C13.2751 27.8575 15.8987 24.8073 18.5466 21.7236C15.9017 17.8689 13.2781 14.0478 10.6027 10.1505C10.8221 10.1231 10.9623 10.0926 11.1025 10.0926C12.7693 10.0895 14.433 10.0987 16.0998 10.0774C16.4807 10.0713 16.7062 10.2023 16.9164 10.51C18.4339 12.7467 19.9697 14.9711 21.5024 17.2016C21.6212 17.3753 21.7492 17.5459 21.9199 17.7806C22.0905 17.5947 22.2307 17.4423 22.3647 17.2869C24.2936 15.0442 26.2285 12.8046 28.1452 10.5527C28.4225 10.2267 28.7028 10.0408 29.1416 10.0865C29.4676 10.12 29.8028 10.0926 30.2142 10.0926C29.9339 10.638 29.5194 10.9945 29.1843 11.4029C28.8369 11.8264 28.4712 12.2378 28.1147 12.6552C27.7582 13.0727 27.3986 13.4871 27.0421 13.9046C26.6703 14.3342 26.3016 14.7669 25.9299 15.1966C25.5734 15.614 25.2138 16.0284 24.8573 16.4459C24.5008 16.8634 24.1412 17.2778 23.7847 17.6922C23.4282 18.1066 23.0747 18.518 22.6999 18.9537C25.4484 22.9577 28.1726 26.9251 30.9638 30.9869ZM28.5078 29.7223C28.3554 29.4755 28.2671 29.311 28.1574 29.1586C24.1443 23.4117 20.1281 17.6648 16.1211 11.9117C15.8987 11.5948 15.6762 11.4181 15.2648 11.4455C14.6981 11.4821 14.1283 11.4455 13.5615 11.4455C13.4122 11.4455 13.2629 11.4669 13.0374 11.4851C13.1837 11.7137 13.2903 11.8935 13.4091 12.0641C16.3009 16.2052 19.1957 20.3463 22.0905 24.4873C23.2118 26.0932 24.3271 27.7021 25.4576 29.3018C25.5734 29.4664 25.7532 29.698 25.9116 29.7041C26.7435 29.7437 27.5784 29.7223 28.5078 29.7223Z" fill="#3C3C3C"/>
</svg>
