<svg width="24" height="25" viewBox="0 0 24 25" fill="none" xmlns="http://www.w3.org/2000/svg">
<path d="M5.56811 13.3345C5.31573 13.3344 5.06993 13.3344 4.86178 13.3514C4.63318 13.3701 4.36345 13.4142 4.09202 13.5525C3.7157 13.7442 3.40974 14.0502 3.21799 14.4265C3.07969 14.6979 3.03563 14.9677 3.01695 15.1962C2.99994 15.4044 2.99997 15.6502 3 15.9026L3 18.7664C2.99997 19.0188 2.99994 19.2646 3.01695 19.4727C3.03563 19.7013 3.07969 19.971 3.21799 20.2425C3.40974 20.6188 3.7157 20.9247 4.09202 21.1165C4.36345 21.2548 4.63318 21.2989 4.86178 21.3175C5.06992 21.3345 5.3157 21.3345 5.56807 21.3345H18.4319C18.6843 21.3345 18.9301 21.3345 19.1382 21.3175C19.3668 21.2989 19.6366 21.2548 19.908 21.1165C20.2843 20.9247 20.5903 20.6188 20.782 20.2425C20.9203 19.971 20.9644 19.7013 20.9831 19.4727C21.0001 19.2646 21 19.0188 21 18.7665V15.9026C21 15.6502 21.0001 15.4044 20.9831 15.1962C20.9644 14.9677 20.9203 14.6979 20.782 14.4265C20.5903 14.0502 20.2843 13.7442 19.908 13.5525C19.6366 13.4142 19.3668 13.3701 19.1382 13.3514C18.9301 13.3344 18.6843 13.3344 18.4319 13.3345L5.56811 13.3345Z" fill="#CF1126"/>
<path d="M5.56811 3.33448C5.31573 3.33445 5.06993 3.33442 4.86178 3.35142C4.63318 3.3701 4.36345 3.41417 4.09202 3.55246C3.7157 3.74421 3.40974 4.05017 3.21799 4.4265C3.07969 4.69792 3.03563 4.96765 3.01695 5.19625C2.99994 5.4044 2.99997 5.65019 3 5.90257L3 8.76638C2.99997 9.01875 2.99994 9.26455 3.01695 9.47271C3.03563 9.7013 3.07969 9.97104 3.21799 10.2425C3.40974 10.6188 3.7157 10.9247 4.09202 11.1165C4.36345 11.2548 4.63318 11.2989 4.86178 11.3175C5.06992 11.3345 5.3157 11.3345 5.56807 11.3345H18.4319C18.6843 11.3345 18.9301 11.3345 19.1382 11.3175C19.3668 11.2989 19.6366 11.2548 19.908 11.1165C20.2843 10.9247 20.5903 10.6188 20.782 10.2425C20.9203 9.97104 20.9644 9.7013 20.9831 9.47271C21.0001 9.26459 21 9.01885 21 8.76651V5.90256C21 5.65023 21.0001 5.40437 20.9831 5.19625C20.9644 4.96765 20.9203 4.69792 20.782 4.4265C20.5903 4.05017 20.2843 3.74421 19.908 3.55246C19.6366 3.41417 19.3668 3.3701 19.1382 3.35142C18.9301 3.33442 18.6843 3.33445 18.4319 3.33448L5.56811 3.33448Z" fill="#CF1126"/>
</svg>
