<svg width="24" height="25" viewBox="0 0 24 25" fill="none" xmlns="http://www.w3.org/2000/svg">
<path d="M15.5681 3.33448C15.3157 3.33445 15.0699 3.33442 14.8618 3.35142C14.6332 3.3701 14.3634 3.41417 14.092 3.55246C13.7157 3.74421 13.4097 4.05017 13.218 4.4265C13.0797 4.69792 13.0356 4.96765 13.017 5.19625C12.9999 5.4044 13 5.65019 13 5.90257L13 18.7664C13 19.0188 12.9999 19.2646 13.017 19.4727C13.0356 19.7013 13.0797 19.971 13.218 20.2425C13.4097 20.6188 13.7157 20.9247 14.092 21.1165C14.3634 21.2548 14.6332 21.2989 14.8618 21.3175C15.0699 21.3345 15.3156 21.3345 15.568 21.3345H18.4319C18.6843 21.3345 18.9301 21.3345 19.1382 21.3175C19.3668 21.2989 19.6366 21.2548 19.908 21.1165C20.2843 20.9247 20.5903 20.6188 20.782 20.2425C20.9203 19.971 20.9644 19.7013 20.9831 19.4727C21.0001 19.2646 21 19.0188 21 18.7664V5.90258C21 5.65021 21.0001 5.4044 20.9831 5.19625C20.9644 4.96765 20.9203 4.69792 20.782 4.4265C20.5903 4.05017 20.2843 3.74421 19.908 3.55246C19.6366 3.41417 19.3668 3.3701 19.1382 3.35142C18.9301 3.33442 18.6843 3.33445 18.4319 3.33448L15.5681 3.33448Z" fill="#CF1126"/>
<path d="M5.56811 3.33448C5.31573 3.33445 5.06993 3.33442 4.86178 3.35142C4.63318 3.3701 4.36345 3.41417 4.09202 3.55246C3.7157 3.74421 3.40974 4.05017 3.21799 4.4265C3.07969 4.69792 3.03563 4.96765 3.01695 5.19625C2.99994 5.4044 2.99997 5.65019 3 5.90257L3 18.7664C2.99997 19.0188 2.99994 19.2646 3.01695 19.4727C3.03563 19.7013 3.07969 19.971 3.21799 20.2425C3.40974 20.6188 3.7157 20.9247 4.09202 21.1165C4.36345 21.2548 4.63318 21.2989 4.86178 21.3175C5.0699 21.3345 5.31564 21.3345 5.56797 21.3345H8.43192C8.68426 21.3345 8.93011 21.3345 9.13824 21.3175C9.36683 21.2989 9.63656 21.2548 9.90799 21.1165C10.2843 20.9247 10.5903 20.6188 10.782 20.2425C10.9203 19.971 10.9644 19.7013 10.9831 19.4727C11.0001 19.2646 11 19.0188 11 18.7664V5.90258C11 5.65021 11.0001 5.4044 10.9831 5.19625C10.9644 4.96765 10.9203 4.69792 10.782 4.4265C10.5903 4.05017 10.2843 3.74421 9.90799 3.55246C9.63656 3.41417 9.36683 3.3701 9.13824 3.35142C8.93008 3.33442 8.68429 3.33445 8.43192 3.33448L5.56811 3.33448Z" fill="#CF1126"/>
</svg>
