<svg width="24" height="25" viewBox="0 0 24 25" fill="none" xmlns="http://www.w3.org/2000/svg">
<path fill-rule="evenodd" clip-rule="evenodd" d="M17.3569 20.7513C19.8824 19.1461 21.6391 16.4392 21.9505 13.307C19.3663 13.3162 17.4497 13.3889 15.557 13.9587C16.3697 16.0742 16.9709 18.3106 17.3569 20.7513ZM13.6949 14.6886C11.6566 15.6768 9.37679 17.4035 6.24199 20.4826C7.86997 21.6311 9.8562 22.3057 12 22.3057C13.2216 22.3057 14.3921 22.0866 15.4743 21.6856C15.1192 19.1555 14.5276 16.8592 13.6949 14.6886ZM14.7783 12.1065C17.0449 11.3883 19.276 11.3141 21.9507 11.3065C21.7731 9.51596 21.1232 7.86432 20.1273 6.47793C18.1435 8.0124 16.1205 9.25608 13.8293 10.1936C14.1665 10.8234 14.4829 11.4602 14.7783 12.1065ZM11.9271 10.8805C12.2809 11.5279 12.6105 12.1812 12.9162 12.844C10.5333 13.9801 8.01868 15.9213 4.72628 19.1681C3.0361 17.3773 2 14.9625 2 12.3057L2 12.2973C5.92271 12.2306 9.12157 11.7647 11.9271 10.8805ZM12.8277 8.44081C14.9834 7.58876 16.8941 6.43882 18.8014 4.97475C17.0169 3.31842 14.6267 2.30566 12 2.30566C10.8851 2.30566 9.81273 2.48813 8.81125 2.82483C10.3405 4.70437 11.6804 6.55165 12.8277 8.44081ZM6.92979 3.68448C8.44524 5.5188 9.76388 7.30075 10.889 9.10602C8.46507 9.81818 5.66455 10.2189 2.20261 10.293C2.77743 7.47996 4.53338 5.09688 6.92979 3.68448Z" fill="#FC9F98"/>
</svg>
