<svg width="24" height="25" viewBox="0 0 24 25" fill="none" xmlns="http://www.w3.org/2000/svg">
<path fill-rule="evenodd" clip-rule="evenodd" d="M12 22.3057C17.5228 22.3057 22 17.8285 22 12.3057C22 6.78282 17.5228 2.30566 12 2.30566C6.47715 2.30566 2 6.78282 2 12.3057C2 14.5569 2.74389 16.6343 3.99927 18.3057L3.99977 21.0765C3.99989 21.7106 4.58261 22.1845 5.20344 22.0553L8 21.4736C9.22492 22.0088 10.5778 22.3057 12 22.3057ZM6.70509 14.0127L9.45568 10.0833C9.76078 9.64741 10.3537 9.52675 10.8049 9.80873L13.4525 11.4635C13.7858 11.6718 14.2102 11.6655 14.5372 11.4475L16.7092 9.99951C16.8783 9.8868 17.1034 9.90909 17.2471 10.0528C17.3934 10.199 17.4135 10.4292 17.2949 10.5987L14.5443 14.5281C14.2392 14.9639 13.6463 15.0846 13.1951 14.8026L10.5475 13.1479C10.2142 12.9395 9.78981 12.9458 9.4628 13.1638L7.29077 14.6118C7.1217 14.7245 6.89657 14.7022 6.75289 14.5586C6.60663 14.4123 6.58647 14.1821 6.70509 14.0127Z" fill="#FC9F98"/>
</svg>
