<svg width="24" height="25" viewBox="0 0 24 25" fill="none" xmlns="http://www.w3.org/2000/svg">
<path fill-rule="evenodd" clip-rule="evenodd" d="M5.58971 4.51508C3.72849 4.64121 2.29215 6.1226 2.1711 7.98416C2.08072 9.37418 2 10.9852 2 12.3057C2 13.6261 2.08072 15.2371 2.1711 16.6272C2.29215 18.4887 3.72849 19.9701 5.58971 20.0963C7.21433 20.2064 9.40027 20.3057 12 20.3057C14.5997 20.3057 16.7857 20.2064 18.4103 20.0963C20.2715 19.9701 21.7078 18.4887 21.8289 16.6272C21.9193 15.2371 22 13.6261 22 12.3057C22 10.9852 21.9193 9.37418 21.8289 7.98416C21.7078 6.1226 20.2715 4.64121 18.4103 4.51508C16.7857 4.40497 14.5997 4.30566 12 4.30566C9.40027 4.30566 7.21433 4.40497 5.58971 4.51508ZM11.5521 9.47346C10.8873 9.03331 10 9.50999 10 10.3073V14.3043C10 15.1016 10.8873 15.5783 11.552 15.1382L14.5454 13.1564C15.1546 12.7531 15.1547 11.8588 14.5455 11.4554L11.5521 9.47346Z" fill="#FC9F98"/>
</svg>
