<svg width="24" height="25" viewBox="0 0 24 25" fill="none" xmlns="http://www.w3.org/2000/svg">
<path d="M9.08612 15.0193C8.89301 14.7719 8.52236 14.7615 8.31569 14.9977L4.24744 19.6472C3.88375 20.0628 3.92587 20.6946 4.34151 21.0583C4.75715 21.4219 5.38891 21.3798 5.75259 20.9642L9.69475 16.4589C9.85271 16.2783 9.86021 16.0111 9.71261 15.822L9.08612 15.0193Z" fill="#FC9F98"/>
<path d="M15.6897 9.60747C15.483 9.84367 15.1124 9.83328 14.9193 9.58587L14.2928 8.78326C14.1452 8.59416 14.1527 8.32688 14.3107 8.14635L18.2474 3.64717C18.6111 3.23154 19.2429 3.18942 19.6585 3.5531C20.0742 3.91678 20.1163 4.54855 19.7526 4.96418L15.6897 9.60747Z" fill="#FC9F98"/>
<path d="M20.8999 20.498L7.78057 3.69036C7.59106 3.44758 7.30026 3.30566 6.99228 3.30566H3.50483C3.08836 3.30566 2.85443 3.78501 3.11069 4.11332L16.23 20.921C16.4195 21.1637 16.7103 21.3057 17.0183 21.3057H20.5057C20.9222 21.3057 21.1561 20.8263 20.8999 20.498Z" fill="#FC9F98"/>
</svg>
