<svg width="25" height="25" viewBox="0 0 25 25" fill="none" xmlns="http://www.w3.org/2000/svg">
<path fill-rule="evenodd" clip-rule="evenodd" d="M7.89819 6.33447C6.34697 6.33447 5.05156 7.51705 4.9106 9.06185L4.34558 15.2537C4.19463 16.9079 5.49695 18.3345 7.15798 18.3345C7.83473 18.3345 8.45301 18.0983 8.94056 17.7009C9.67624 17.1013 10.8461 16.3345 12.3337 16.3345C13.8212 16.3345 14.9911 17.1013 15.7268 17.7009C16.2143 18.0983 16.8326 18.3345 17.5094 18.3345C19.1704 18.3345 20.4727 16.9079 20.3217 15.2538L19.7567 9.06185C19.6158 7.51705 18.3204 6.33447 16.7691 6.33447H7.89819ZM7.89819 4.33447C5.31282 4.33447 3.15382 6.30544 2.91887 8.8801L2.35385 15.072C2.09601 17.8976 4.32061 20.3345 7.15798 20.3345C8.3114 20.3345 9.37255 19.929 10.2042 19.2512C10.8196 18.7496 11.5397 18.3345 12.3337 18.3345C13.1276 18.3345 13.8478 18.7496 14.4632 19.2512C15.2948 19.929 16.3559 20.3345 17.5094 20.3345C20.3467 20.3345 22.5713 17.8976 22.3135 15.072L21.7485 8.88011C21.5135 6.30544 19.3545 4.33447 16.7691 4.33447H7.89819Z" fill="#CF1126"/>
<path d="M9.3335 8.33447C8.78121 8.33447 8.3335 8.78219 8.3335 9.33447V10.3345H7.3335C6.78121 10.3345 6.3335 10.7822 6.3335 11.3345C6.3335 11.8868 6.78121 12.3345 7.3335 12.3345H8.3335V13.3345C8.3335 13.8868 8.78121 14.3345 9.3335 14.3345C9.88578 14.3345 10.3335 13.8868 10.3335 13.3345V12.3345H11.3335C11.8858 12.3345 12.3335 11.8868 12.3335 11.3345C12.3335 10.7822 11.8858 10.3345 11.3335 10.3345H10.3335V9.33447C10.3335 8.78219 9.88578 8.33447 9.3335 8.33447Z" fill="#CF1126"/>
<path d="M16.3335 13.3345C16.3335 13.8868 15.8858 14.3345 15.3335 14.3345C14.7812 14.3345 14.3335 13.8868 14.3335 13.3345C14.3335 12.7822 14.7812 12.3345 15.3335 12.3345C15.8858 12.3345 16.3335 12.7822 16.3335 13.3345Z" fill="#CF1126"/>
<path d="M17.3335 10.3345C17.8858 10.3345 18.3335 9.88676 18.3335 9.33447C18.3335 8.78219 17.8858 8.33447 17.3335 8.33447C16.7812 8.33447 16.3335 8.78219 16.3335 9.33447C16.3335 9.88676 16.7812 10.3345 17.3335 10.3345Z" fill="#CF1126"/>
</svg>
