<svg width="24" height="25" viewBox="0 0 24 25" fill="none" xmlns="http://www.w3.org/2000/svg">
<path fill-rule="evenodd" clip-rule="evenodd" d="M5.18567 3.34704C3.9418 3.23396 2.89973 4.27603 3.01281 5.5199L3.69386 13.0115C3.91828 15.48 5.63755 17.5564 8.0209 18.2374L11.476 19.2246L12.7087 20.4573C13.8803 21.6289 15.7798 21.6289 16.9514 20.4573L20.1229 17.2857C21.2945 16.1141 21.2945 14.2146 20.1229 13.0431L18.8904 11.8106L17.9032 8.35513C17.2222 5.97178 15.1458 4.25251 12.6772 4.02809L5.18567 3.34704ZM18 13.7486L13.4142 18.3344L14.1229 19.0431C14.5135 19.4336 15.1466 19.4336 15.5371 19.0431L18.7087 15.8715C19.0992 15.481 19.0992 14.8478 18.7087 14.4573L18 13.7486ZM5.0046 5.33883L12.4962 6.01988C14.1419 6.16949 15.5262 7.31567 15.9801 8.90457L16.8769 12.0432L11.709 17.2111L8.57034 16.3144C6.98144 15.8604 5.83526 14.4761 5.68565 12.8304L5.0046 5.33883Z" fill="#CF1126"/>
<path d="M3.59006 3.92435C3.13189 4.38238 3.35361 5.10231 3.81171 5.56041L9.06776 10.8165C9.02357 10.9817 9.00001 11.1553 9.00001 11.3345C9.00001 12.4391 9.89545 13.3345 11 13.3345C12.1046 13.3345 13 12.4391 13 11.3345C13 10.2299 12.1046 9.3345 11 9.3345C10.8209 9.3345 10.6472 9.35806 10.482 9.40225L5.22589 4.14617C4.76788 3.68816 4.04814 3.46641 3.59006 3.92435Z" fill="#CF1126"/>
</svg>
