<svg width="24" height="25" viewBox="0 0 24 25" fill="none" xmlns="http://www.w3.org/2000/svg">
<path d="M7 4.33447H9V11.3345H15V4.33447H17V7.33447H20V9.33447H17V11.3345H20V13.3345H17V15.3345H20V17.3345H17V20.3345H15V13.3345H9V20.3345H7V17.3345H4V15.3345H7V13.3345H4V11.3345H7V9.33447H4V7.33447H7V4.33447Z" fill="#CF1126"/>
<path fill-rule="evenodd" clip-rule="evenodd" d="M10.3572 3.33447H13.6428C14.7266 3.33446 15.6007 3.33445 16.3086 3.39229C17.0375 3.45184 17.6777 3.57765 18.27 3.87944C19.2108 4.35881 19.9757 5.12371 20.455 6.06452C20.7568 6.65681 20.8826 7.297 20.9422 8.02585C21 8.73372 21 9.60787 21 10.6916V13.9773C21 15.0611 21 15.9352 20.9422 16.6431C20.8826 17.3719 20.7568 18.0121 20.455 18.6044C19.9757 19.5452 19.2108 20.3101 18.27 20.7895C17.6777 21.0913 17.0375 21.2171 16.3086 21.2767C15.6008 21.3345 14.7266 21.3345 13.6428 21.3345H10.3572C9.27339 21.3345 8.39925 21.3345 7.69138 21.2767C6.96253 21.2171 6.32234 21.0913 5.73005 20.7895C4.78924 20.3101 4.02433 19.5452 3.54497 18.6044C3.24318 18.0121 3.11737 17.3719 3.05782 16.6431C2.99998 15.9352 2.99999 15.0611 3 13.9773V10.6917C2.99999 9.60788 2.99998 8.73373 3.05782 8.02585C3.11737 7.297 3.24318 6.65681 3.54497 6.06452C4.02433 5.12371 4.78924 4.35881 5.73005 3.87944C6.32234 3.57765 6.96253 3.45184 7.69138 3.39229C8.39926 3.33445 9.27341 3.33446 10.3572 3.33447ZM7.85424 5.38565C7.24907 5.43509 6.90138 5.52727 6.63803 5.66145C6.07354 5.94907 5.6146 6.40802 5.32698 6.9725C5.19279 7.23586 5.10062 7.58355 5.05118 8.18871C5.00078 8.80555 5 9.59787 5 10.7345V13.9345C5 15.0711 5.00078 15.8634 5.05118 16.4802C5.10062 17.0854 5.19279 17.4331 5.32698 17.6964C5.6146 18.2609 6.07354 18.7199 6.63803 19.0075C6.90138 19.1417 7.24907 19.2339 7.85424 19.2833C8.47108 19.3337 9.26339 19.3345 10.4 19.3345H13.6C14.7366 19.3345 15.5289 19.3337 16.1458 19.2833C16.7509 19.2339 17.0986 19.1417 17.362 19.0075C17.9265 18.7199 18.3854 18.2609 18.673 17.6964C18.8072 17.4331 18.8994 17.0854 18.9488 16.4802C18.9992 15.8634 19 15.0711 19 13.9345V10.7345C19 9.59787 18.9992 8.80555 18.9488 8.18871C18.8994 7.58355 18.8072 7.23586 18.673 6.9725C18.3854 6.40802 17.9265 5.94907 17.362 5.66145C17.0986 5.52727 16.7509 5.43509 16.1458 5.38565C15.5289 5.33525 14.7366 5.33447 13.6 5.33447H10.4C9.26339 5.33447 8.47108 5.33525 7.85424 5.38565Z" fill="#CF1126"/>
</svg>
