<svg width="25" height="25" viewBox="0 0 25 25" fill="none" xmlns="http://www.w3.org/2000/svg">
<path fill-rule="evenodd" clip-rule="evenodd" d="M10.4252 2.33447H14.9078C15.7128 2.33446 16.3771 2.33445 16.9183 2.37867C17.4804 2.42459 17.9971 2.52316 18.4825 2.77045C19.2351 3.15394 19.847 3.76586 20.2305 4.51851C20.4778 5.00385 20.5764 5.52055 20.6223 6.08265C20.6665 6.62384 20.6665 7.28819 20.6665 8.09315V16.5758C20.6665 17.3808 20.6665 18.0451 20.6223 18.5863C20.5764 19.1484 20.4778 19.6651 20.2305 20.1504C19.847 20.9031 19.2351 21.515 18.4825 21.8985C17.9971 22.1458 17.4804 22.2444 16.9183 22.2903C16.3771 22.3345 15.7128 22.3345 14.9078 22.3345H10.4252C9.62022 22.3345 8.95587 22.3345 8.41468 22.2903C7.85258 22.2444 7.33588 22.1458 6.85054 21.8985C6.09789 21.515 5.48597 20.9031 5.10248 20.1504C4.85519 19.6651 4.75662 19.1484 4.7107 18.5863C4.66648 18.0451 4.66649 17.3807 4.6665 16.5758V8.09317C4.66649 7.2882 4.66648 6.62384 4.7107 6.08265C4.75662 5.52055 4.85519 5.00385 5.10248 4.51851C5.48597 3.76586 6.09789 3.15394 6.85054 2.77045C7.33588 2.52316 7.85258 2.42459 8.41468 2.37867C8.95587 2.33445 9.62024 2.33446 10.4252 2.33447ZM8.57754 4.37203C8.13913 4.40785 7.91492 4.47277 7.75852 4.55246C7.3822 4.74421 7.07624 5.05017 6.88449 5.42649C6.8048 5.58289 6.73988 5.8071 6.70406 6.24551C6.66728 6.6956 6.6665 7.27789 6.6665 8.13447V16.5345C6.6665 17.3911 6.66728 17.9733 6.70406 18.4234C6.73988 18.8619 6.8048 19.0861 6.88449 19.2425C7.07624 19.6188 7.3822 19.9247 7.75852 20.1165C7.91492 20.1962 8.13913 20.2611 8.57754 20.2969C9.02763 20.3337 9.60993 20.3345 10.4665 20.3345H14.8665C15.7231 20.3345 16.3054 20.3337 16.7555 20.2969C17.1939 20.2611 17.4181 20.1962 17.5745 20.1165C17.9508 19.9247 18.2568 19.6188 18.4485 19.2425C18.5282 19.0861 18.5931 18.8619 18.629 18.4234C18.6657 17.9733 18.6665 17.3911 18.6665 16.5345V8.13447C18.6665 7.27789 18.6657 6.6956 18.629 6.24551C18.5931 5.8071 18.5282 5.58289 18.4485 5.42649C18.2568 5.05017 17.9508 4.74421 17.5745 4.55246C17.4181 4.47277 17.1939 4.40785 16.7555 4.37203C16.3054 4.33525 15.7231 4.33447 14.8665 4.33447H10.4665C9.60993 4.33447 9.02763 4.33525 8.57754 4.37203Z" fill="#CF1126"/>
<path d="M13.6665 17.3345C13.6665 17.8868 13.2188 18.3345 12.6665 18.3345C12.1142 18.3345 11.6665 17.8868 11.6665 17.3345C11.6665 16.7822 12.1142 16.3345 12.6665 16.3345C13.2188 16.3345 13.6665 16.7822 13.6665 17.3345Z" fill="#CF1126"/>
</svg>
