<svg width="90" height="45" viewBox="0 0 90 45" fill="none" xmlns="http://www.w3.org/2000/svg">
<path d="M4.08596 20.6715L9.80456 20.3548L7.67781 24.0655C7.67781 24.0655 6.61875 25.569 8.26848 25.5242C9.39876 25.4934 10.2673 24.6519 11.0597 23.4543C11.8513 22.2565 12.2708 20.848 11.4065 18.9996L9.78863 15.3355C9.78863 15.3355 7.99758 11.9089 12.3206 6.48515C16.8491 0.804263 21.2629 0.519715 21.2629 0.519715C21.2629 0.519715 26.4062 -0.388613 27.9033 2.4339L23.1212 10.8375L18.4188 11.1096L20.1231 8.2105C20.1231 8.2105 21.3898 6.39237 19.5963 6.36538C18.0408 6.34209 16.7404 8.9615 16.6137 9.62247C16.4188 10.6364 16.9111 11.3996 17.2729 12.6713L18.7413 16.2062C18.7413 16.2062 19.778 17.8168 17.223 22.4165C15.1081 26.2231 12.3173 29.7949 6.39274 30.432C0.467396 31.0689 -0.302205 28.3381 1.62069 25.1199L4.08388 20.6726L4.08596 20.6715Z" fill="white"/>
<path d="M26.8937 6.77358L38.8183 6.65653L36.4526 10.7627L32.8512 10.8078L24.5579 25.4449L19.749 25.5646L28.055 10.9733L24.461 10.9998L26.8937 6.77358Z" fill="white"/>
<path d="M15.2804 26.3098L20.1009 26.2868L17.4503 35.9511L23.0185 26.1636L27.2423 26.1679L17.4028 43.3644L12.4123 43.3771L14.5711 34.6046L9.57767 43.4157L5.495 43.4945L15.2804 26.3098Z" fill="white"/>
<path d="M43.3548 26.626L49.9015 26.5725L46.3406 35.5443L52.3387 26.511L59.517 26.441L49.6337 43.8562L44.8207 43.8494L49.7489 35.2311L43.2143 43.8389L39.8526 43.8743L43.1099 35.2707L38.0756 44.0621L33.4863 44.1276L43.3548 26.626Z" fill="white"/>
<path d="M77.7266 27.829L74.8358 32.8584L70.7823 32.8549L71.9954 30.7869C71.9954 30.7869 72.4415 29.8434 71.6451 29.7911C70.5956 29.7218 69.537 31.302 69.537 31.302L65.4511 38.4006C65.4511 38.4006 64.4987 39.9024 65.4362 39.9848C66.6854 40.0945 67.3446 38.7659 67.3446 38.7659L68.1277 37.4053L72.1408 37.3405L70.2508 40.7186C70.2508 40.7186 68.5606 44.0415 62.9972 43.74C58.4009 43.4901 60.0336 39.9379 60.0336 39.9379C60.0336 39.9379 61.6531 36.8418 64.1823 32.529C65.6219 30.0747 66.82 28.6807 68.3416 27.645C71.1231 25.7514 76.4381 25.0349 77.7266 27.829Z" fill="white"/>
<path d="M83.1733 32.1287L87.2312 32.1127L89.9023 27.4978C89.9023 27.4978 88.5168 25.233 84.6289 25.9746C80.8796 26.6897 79.4923 28.4955 78.5705 29.6337C77.4195 31.0554 76.3897 33.1213 77.8151 35.2159L79.0796 37.0253C79.0796 37.0253 79.8614 37.9823 79.1912 39.0195C78.4822 40.1169 77.6701 40.2799 76.9816 40.1272C76.5355 40.0283 76.3347 39.6282 76.6331 39.092C76.6785 39.0105 76.6692 38.9258 76.7188 38.8394L77.5893 37.2625L74.0596 37.309L72.2759 40.5245C72.2759 40.5245 70.9199 42.9282 72.9718 43.422C75.3305 43.9896 79.9002 43.7971 82.2735 40.8618C82.2735 40.8618 83.3272 39.0487 84.1461 37.467C84.9803 35.8561 83.8524 34.3928 83.8524 34.3928L82.6838 32.8594C82.6838 32.8594 81.5601 31.8995 82.3194 30.6603C83.071 29.4344 83.8644 29.6667 83.8644 29.6667C83.8644 29.6667 84.5416 29.7523 83.9043 30.8598L83.1735 32.1279L83.1733 32.1287Z" fill="white"/>
<path d="M46.0831 6.73615C45.2472 6.75508 39.633 6.44306 35.8279 13.6178L22.1363 37.5977C19.6414 41.7724 20.7957 43.4579 25.3864 43.2006C28.4318 43.0302 32.1987 42.6076 35.3736 37.5066L49.1043 13.4067C53.1962 6.43699 46.9185 6.71618 46.0823 6.7359L46.0831 6.73615ZM44.2855 12.3766L29.6824 38.0286C29.3661 38.5582 28.7507 39.0087 28.1518 39.1493L28.1311 39.1542C27.1707 39.3797 26.7007 38.7322 27.2089 37.8829L41.8326 12.226C42.1551 11.6878 42.8676 11.2441 43.4735 11.1117L43.3905 11.1016C44.3334 10.8958 44.7847 11.5393 44.2847 12.3763L44.2855 12.3766Z" fill="white"/>
<path d="M63.4323 6.38311L54.7103 6.4422L43.936 25.2992L48.3115 25.2298L52.4865 17.8622L55.7398 17.7922L53.9413 25.243L58.2035 25.1018L59.6376 17.2512C59.6376 17.2512 62.7028 16.5979 65.0018 13.0522C67.3005 9.5073 66.3767 6.81899 63.4334 6.38256L63.4323 6.38311ZM60.6541 13.2303C59.2658 15.0672 54.2126 14.7115 54.2126 14.7115L56.8018 10.1807L60.0796 10.1496C62.2193 9.91727 62.2763 11.0836 60.6541 13.2303Z" fill="white"/>
<path d="M60.6229 27.7678L56.6321 29.9304C56.4547 30.0265 56.2332 29.9645 56.1313 29.7905C56.0295 29.6164 56.084 29.3929 56.2546 29.2854L61.7071 25.85L60.6229 27.7678Z" fill="white"/>
<path d="M66.3374 27.5106C66.3997 27.6933 66.3125 27.8934 66.1364 27.9723C65.9602 28.0512 65.7529 27.9829 65.658 27.8148L65.3678 27.3006L65.9298 26.3137L66.3374 27.5106Z" fill="white"/>
<path d="M69.1914 25.6736C69.4686 25.76 69.6239 26.0559 69.5376 26.3331C69.4513 26.6103 69.1554 26.7656 68.8781 26.6793L66.1971 25.8443L66.7306 24.9072L69.1914 25.6736Z" fill="white"/>
<path d="M62.382 24.656L60.224 23.9839C59.9554 23.9003 59.8013 23.6199 59.8704 23.3505L59.8777 23.3244L59.8865 23.2988C59.9826 23.0378 60.2686 22.8946 60.5372 22.9782L62.9123 23.7179L62.382 24.656Z" fill="white"/>
<path d="M63.2757 21.6867C63.453 21.6053 63.6631 21.6739 63.7582 21.8442L63.8641 22.034L63.3626 22.9212L63.081 22.1554C63.0136 21.9723 63.0984 21.7682 63.2757 21.6867Z" fill="white"/>
<path d="M72.7871 19.7238C72.9654 19.6302 73.1857 19.6946 73.2855 19.8694C73.3853 20.0441 73.3288 20.2666 73.1577 20.3726L67.2183 24.0506L68.3577 22.0492L72.7871 19.7238Z" fill="white"/>
<path d="M65.3678 27.3006L56.113 43.5554L51.6378 43.6625L60.6229 27.7678L63.7716 26.0617L62.8571 28.9979C62.7708 29.2751 62.9262 29.571 63.2034 29.6574C63.4806 29.7437 63.7766 29.5883 63.8629 29.3111L64.8016 26.2972L65.3678 27.3006Z" fill="white"/>
<path d="M63.1984 24.9103L61.7071 25.85L62.382 24.656L63.1984 24.9103Z" fill="white"/>
<path d="M65.9298 26.3137L65.7382 25.7511C65.7497 25.7383 65.761 25.7252 65.7721 25.7119L66.1971 25.8443L65.9298 26.3137Z" fill="white"/>
<path d="M66.7306 24.9072L66.1348 24.7216L67.2183 24.0506L66.7306 24.9072Z" fill="white"/>
<path d="M63.7111 23.8685C63.6874 23.8932 63.6645 23.9189 63.6426 23.9454L62.9123 23.7179L63.3626 22.9212L63.7111 23.8685Z" fill="white"/>
<path d="M69.7704 19.5683L68.3577 22.0492L65.6881 23.4509L66.5578 20.6586C66.6414 20.3901 66.4982 20.1039 66.2371 20.0078L66.2116 19.9991C65.9343 19.9127 65.6383 20.0681 65.552 20.3454L64.6099 23.3702L63.8641 22.034L65.3297 19.4416L68.0535 6.86617L72.5799 6.85159L71.2868 12.7353L76.6633 6.74253L81.4737 6.69633L69.7704 19.5683Z" fill="white"/>
</svg>
