<svg width="514" height="349" viewBox="0 0 514 349" fill="none" xmlns="http://www.w3.org/2000/svg">
<path d="M8.33525 219.621L40.6303 207.566L35.0503 232.696C35.0503 232.696 31.6553 243.231 41.0553 240.021C47.4953 237.821 50.9803 231.431 53.3903 223.131C55.7952 214.831 55.6852 205.986 47.4103 196.911L31.5553 178.751C31.5553 178.751 15.1303 162.266 30.2653 123.361C46.1203 82.6106 70.9753 73.0756 70.9753 73.0756C70.9753 73.0756 98.9053 58.6506 112.56 72.1906L100.12 129.041L73.5853 139.021L78.1903 119.311C78.1903 119.311 82.2153 106.596 71.8603 109.651C62.8803 112.301 60.0952 129.681 60.5503 133.706C61.2453 139.881 65.4402 143.386 69.7952 150.046L84.5602 167.731C84.5602 167.731 93.4002 175.131 86.9502 206.136C81.6102 231.796 71.9653 257.316 39.0603 271.581C6.15025 285.846 -3.15975 271.531 2.13025 249.596L8.32525 219.631L8.33525 219.621Z" fill="white"/>
<path d="M114.525 98.9357L182.84 76.9207L176.595 104.751L155.98 111.456L134.52 210.411L107.1 219.706L128.715 120.991L108.11 127.576L114.525 98.9357Z" fill="white"/>
<path d="M82.7553 231.986L110.415 223.226L112.48 283.506L126.96 217.296L151.24 209.761L125.475 326.191L96.8203 335.196L93.5253 280.921L80.6003 340.491L57.2803 348.251L82.7553 231.986Z" fill="white"/>
<path d="M244.65 183.556L282.175 171.531L277.77 229.461L296.07 166.816L337.195 153.566L311.57 271.331L283.9 279.906L296.795 221.561L274.65 282.721L255.395 288.941L258.715 233.671L245.52 293.201L219.265 301.791L244.65 183.556Z" fill="white"/>
<path d="M444.32 128.951L436.71 163.026L413.41 170.261L416.68 156.206C416.68 156.206 417.555 149.986 412.885 151.111C406.73 152.591 403.475 163.566 403.475 163.566L392.7 211.671C392.7 211.671 389.915 222.006 395.45 220.801C402.825 219.196 404.235 210.381 404.235 210.381L406.3 201.161L429.245 193.606L424.43 216.401C424.43 216.401 420.665 238.521 388.155 246.746C361.295 253.536 364.32 230.201 364.32 230.201C364.32 230.201 368.085 209.511 374.9 180.201C378.78 163.521 383.17 153.366 390.06 144.691C402.655 128.831 431.915 115.201 444.32 128.951Z" fill="white"/>
<path d="M483.315 143.911L506.605 136.556L513.695 105.256C513.695 105.256 501.68 94.7207 480.665 105.941C460.4 116.761 455.66 129.621 452.4 137.811C448.33 148.041 446.11 161.756 458.05 171.241L468.555 179.376C468.555 179.376 474.76 183.476 472.765 190.636C470.655 198.211 466.28 200.601 462.05 200.956C459.31 201.186 457.44 199.246 458.195 195.631C458.31 195.081 458.105 194.611 458.235 194.026L460.415 183.406L440.215 189.991L435.72 211.661C435.72 211.661 432.23 227.901 444.905 227.066C459.475 226.106 485.39 216.821 493.775 195.706C493.775 195.706 496.585 183.401 498.46 172.846C500.37 162.096 491.27 155.706 491.27 155.706L481.81 148.986C481.81 148.986 473.635 145.481 475.78 137.001C477.905 128.611 482.88 128.526 482.88 128.526C482.88 128.526 486.925 127.806 485.245 135.311L483.315 143.906V143.911Z" fill="white"/>
<path d="M224.73 64.3757C219.96 65.9807 187.14 74.2357 178.115 122.276L142.355 284.581C135.49 313.036 145.14 320.656 171.06 310.961C188.255 304.531 209.145 295.361 218.26 260.366L254.03 97.3007C265.07 49.9257 229.495 62.7657 224.725 64.3757H224.73ZM224.495 100.006L186.49 273.551C185.62 277.161 182.89 280.851 179.7 282.731L179.59 282.796C174.475 285.811 170.615 282.931 172.015 277.141L210.13 103.531C211.02 99.8607 214.32 96.0357 217.565 94.1907L217.07 94.2807C222.12 91.4107 225.865 94.3007 224.49 100.006H224.495Z" fill="white"/>
<path d="M323.795 31.2957L273.78 47.2457L245.615 174.891L270.635 166.661L281.44 116.851L300.01 110.626L303.01 156.661L327.25 148.221L321.44 100.541C321.44 100.541 337.885 91.3007 344.75 66.8107C351.615 42.3257 341.495 28.5307 323.8 31.2907L323.795 31.2957ZM320.085 75.6157C315.395 88.6557 285.72 95.6557 285.72 95.6557L292.49 64.9857L311.27 58.9407C323.15 53.7757 325.565 60.3757 320.085 75.6157Z" fill="white"/>
<path d="M345.925 159.211L326.862 178.781C326.015 179.65 324.631 179.691 323.734 178.873C322.837 178.055 322.751 176.673 323.539 175.75L348.722 146.25L345.925 159.211Z" fill="white"/>
<path d="M378.303 147.505C378.988 148.444 378.845 149.749 377.974 150.518C377.103 151.287 375.789 151.266 374.943 150.469L372.355 148.034L373.818 141.357L378.303 147.505Z" fill="white"/>
<path d="M391.415 131.841C393.163 131.841 394.585 133.263 394.585 135.011C394.585 136.758 393.163 138.181 391.415 138.181H374.514L375.903 131.841H391.415Z" fill="white"/>
<path d="M350.464 138.181H336.86C335.167 138.181 333.78 136.846 333.695 135.173L333.69 135.011L333.695 134.848C333.78 133.176 335.167 131.841 336.86 131.841H351.832L350.464 138.181Z" fill="white"/>
<path d="M350.285 119.518C351.158 118.733 352.489 118.751 353.34 119.56L354.288 120.461L352.994 126.457L350.005 122.56C349.29 121.628 349.412 120.304 350.285 119.518Z" fill="white"/>
<path d="M401.429 91.2149C402.286 90.3582 403.667 90.3335 404.554 91.1592C405.44 91.985 405.514 93.3646 404.72 94.2798L377.172 126.045L380.138 112.505L401.429 91.2149Z" fill="white"/>
<path d="M372.355 148.034L348.265 258.006L322.74 266.631L345.925 159.211L360.965 143.771V162.281C360.965 164.028 362.388 165.451 364.136 165.451C365.883 165.45 367.306 164.028 367.306 162.281V143.281L372.355 148.034Z" fill="white"/>
<path d="M355.611 138.181L348.722 146.25L350.464 138.181L355.611 138.181Z" fill="white"/>
<path d="M373.818 141.357L371.71 138.467C371.754 138.372 371.795 138.277 371.835 138.181L374.514 138.181L373.818 141.357Z" fill="white"/>
<path d="M375.903 131.841L372.147 131.841L377.172 126.045L375.903 131.841Z" fill="white"/>
<path d="M356.692 131.276C356.6 131.461 356.514 131.649 356.436 131.841L351.832 131.841L352.994 126.457L356.692 131.276Z" fill="white"/>
<path d="M383.815 95.7207L380.138 112.505L367.306 125.338V107.736C367.306 106.043 365.971 104.655 364.298 104.57L364.136 104.565C362.388 104.565 360.965 105.988 360.965 107.736V126.804L354.288 120.461L358.07 102.94L351.215 25.8008L377.2 17.6157L380.3 53.7407L400.47 9.68066L428.03 0.805664L383.815 95.7207Z" fill="white"/>
</svg>
