<svg width="26" height="18" viewBox="0 0 26 18" fill="none" xmlns="http://www.w3.org/2000/svg">
<path fill-rule="evenodd" clip-rule="evenodd" d="M3.11362 16.6484C2.19033 16.3467 1.5687 15.7404 1.23656 14.8262C0.422971 12.5896 0.182263 3.24093 1.7485 1.3974C2.2848 0.766643 2.97344 0.400986 3.79313 0.312618C8.01039 -0.141408 21.0461 -0.0774175 22.5484 0.464976C23.429 0.78188 24.0536 1.35779 24.3919 2.23842C25.2816 4.54816 25.3121 12.9553 24.273 15.1827C23.9927 15.7861 23.5326 16.2127 22.9506 16.5174C21.3782 17.3432 5.18569 17.331 3.11667 16.6515L3.11362 16.6484ZM9.81431 12.2636C12.3495 10.9472 14.8634 9.643 17.4108 8.32358C14.8604 6.99503 12.3495 5.6817 9.81431 4.35924V12.2605V12.2636Z" fill="#3C3C3C"/>
</svg>
