<svg width="25" height="25" viewBox="0 0 25 25" fill="none" xmlns="http://www.w3.org/2000/svg">
<path d="M24.4851 6.6471C24.3267 5.08391 23.7264 3.7005 22.5654 2.59439C21.3435 1.42733 19.8504 0.912358 18.211 0.827038C15.4198 0.67468 8.79227 0.577171 6.46424 0.958065C3.80408 1.39076 2.06111 2.94176 1.32675 5.57145C0.759978 7.59172 0.872734 16.9069 1.20487 18.9027C1.65585 21.633 3.26779 23.3851 5.97671 24.0829C7.85071 24.5674 17.0562 24.5034 19.1221 24.1682C21.8554 23.7264 23.6136 22.1205 24.3236 19.4208C24.866 17.3457 24.6771 8.5211 24.4882 6.65015L24.4851 6.6471ZM22.3003 18.5127C21.9834 20.5878 20.6061 21.8707 18.5188 22.0992C16.6021 22.3095 8.04876 22.4253 6.27227 21.9286C4.57196 21.4532 3.59992 20.2862 3.31958 18.5737C3.05143 16.9404 2.98441 8.77401 3.31655 6.5892C3.63041 4.53238 5.00466 3.24952 7.07978 3.01794C9.18231 2.78331 16.7545 2.75589 18.7686 3.06365C20.8377 3.38055 22.1205 4.76091 22.3491 6.85126C22.5624 8.80144 22.6203 16.4193 22.3003 18.5127ZM12.8054 6.47341C9.44131 6.47341 6.71411 9.19757 6.71411 12.5586C6.71411 15.9226 9.43828 18.6498 12.7993 18.6498C16.1633 18.6498 18.8905 15.9257 18.8905 12.5647C18.8905 9.20061 16.1664 6.47341 12.8054 6.47341ZM12.7658 16.4955C10.5901 16.4772 8.84407 14.6977 8.86235 12.522C8.88064 10.3463 10.6602 8.60033 12.8359 8.61861C15.0115 8.63689 16.7575 10.4164 16.7393 12.5921C16.721 14.7678 14.9414 16.5138 12.7658 16.4955ZM20.5604 6.24183C20.5604 7.02799 19.9174 7.66485 19.1313 7.66485C18.3451 7.66485 17.7082 7.0219 17.7082 6.23573C17.7082 5.44957 18.3512 4.81271 19.1374 4.81271C19.9235 4.81271 20.5604 5.45566 20.5604 6.24183Z" fill="#3C3C3C"/>
</svg>
